<svg
  width="16"
  height="17"
  viewBox="0 0 16 17"
  fill="none"
  xmlns="http://www.w3.org/2000/svg"
>
  <path
    d="M7.75459 2.36536C10.1951 2.36536 12.1759 4.31887 12.1759 6.73206C12.1759 7.88598 11.4862 9.50222 10.377 11.286L10.2587 11.4743C9.80701 12.186 9.31702 12.8745 8.88766 13.41L8.73381 13.5999C8.28361 14.149 8.04259 14.3654 7.75459 14.3654C7.43513 14.3654 7.17403 14.0993 6.62151 13.4104L6.54951 13.3194C6.0862 12.7264 5.65265 12.1107 5.25045 11.4747L5.13221 11.286C4.02263 9.5026 3.33331 7.88674 3.33331 6.73206C3.33331 4.31887 5.31449 2.36536 7.75459 2.36536ZM7.75459 13.2796C7.85387 13.1732 7.97248 13.0348 8.10398 12.8727L8.21691 12.7317C8.65976 12.1643 9.07421 11.5753 9.45875 10.9669C10.5456 9.25401 11.2285 7.69082 11.2285 6.73206C11.2285 4.84486 9.67475 3.31274 7.75459 3.31274C5.8348 3.31274 4.2807 4.84524 4.2807 6.73206C4.2807 7.6586 4.9181 9.14866 5.94128 10.7933L6.05042 10.9669C6.43495 11.5753 6.84941 12.1643 7.29226 12.7317L7.40519 12.8727L7.49083 12.9772C7.56056 13.061 7.62574 13.1372 7.68562 13.2039L7.75459 13.2796ZM7.75459 4.5758C8.34088 4.5758 8.90317 4.80871 9.31774 5.22328C9.73232 5.63786 9.96522 6.20014 9.96522 6.78644C9.96522 7.37274 9.73232 7.93502 9.31774 8.34959C8.90317 8.76417 8.34088 8.99707 7.75459 8.99707C7.16829 8.99707 6.606 8.76417 6.19143 8.34959C5.77685 7.93502 5.54395 7.37274 5.54395 6.78644C5.54395 6.20014 5.77685 5.63786 6.19143 5.22328C6.606 4.80871 7.16829 4.5758 7.75459 4.5758ZM7.75459 5.52319C7.41955 5.52319 7.09824 5.65628 6.86133 5.89319C6.62443 6.13009 6.49134 6.4514 6.49134 6.78644C6.49134 7.12147 6.62443 7.44278 6.86133 7.67969C7.09824 7.91659 7.41955 8.04969 7.75459 8.04969C8.08962 8.04969 8.41093 7.91659 8.64784 7.67969C8.88474 7.44278 9.01783 7.12147 9.01783 6.78644C9.01783 6.4514 8.88474 6.13009 8.64784 5.89319C8.41093 5.65628 8.08962 5.52319 7.75459 5.52319Z"
    fill="#ffffff"
  />
</svg>
